<svg xmlns="http://www.w3.org/2000/svg" viewBox="0 0 1200 800" width="1200" height="800">
  <defs>
    <linearGradient id="bg" x1="0" y1="0" x2="1" y2="1">
      <stop offset="0%" stop-color="#0a0e1a"/>
      <stop offset="50%" stop-color="#111729"/>
      <stop offset="100%" stop-color="#0a0e1a"/>
    </linearGradient>
    <radialGradient id="aurora1" cx="0.85" cy="0.15" r="0.7">
      <stop offset="0%" stop-color="#d4a437" stop-opacity="0.22"/>
      <stop offset="100%" stop-color="#d4a437" stop-opacity="0"/>
    </radialGradient>
    <radialGradient id="aurora2" cx="0.15" cy="0.9" r="0.55">
      <stop offset="0%" stop-color="#2d8a5f" stop-opacity="0.18"/>
      <stop offset="100%" stop-color="#2d8a5f" stop-opacity="0"/>
    </radialGradient>
    <linearGradient id="goldGrad" x1="0" y1="0" x2="1" y2="0">
      <stop offset="0%" stop-color="#d4a437"/>
      <stop offset="100%" stop-color="#ecd28a"/>
    </linearGradient>
    <linearGradient id="markGrad" x1="0" y1="0" x2="1" y2="1">
      <stop offset="0%" stop-color="#d4a437"/>
      <stop offset="100%" stop-color="#b85042"/>
    </linearGradient>
    <filter id="glow"><feGaussianBlur stdDeviation="8" result="blur"/><feMerge><feMergeNode in="blur"/><feMergeNode in="SourceGraphic"/></feMerge></filter>
  </defs>
  <rect width="1200" height="800" fill="url(#bg)"/>
  <rect width="1200" height="800" fill="url(#aurora1)"/>
  <rect width="1200" height="800" fill="url(#aurora2)"/>
  <rect x="20" y="20" width="1160" height="760" fill="none" stroke="rgba(255,255,255,0.05)" rx="24"/>
  <g transform="translate(810, 80)" opacity="0.75">
    <line x1="185" y1="60" x2="185" y2="480" stroke="#2d8a5f" stroke-width="3" opacity="0.6"/>
    <line x1="155" y1="100" x2="215" y2="100" stroke="#d4a437" stroke-width="2.5" opacity="0.9"/>
    <line x1="163" y1="130" x2="207" y2="130" stroke="#d4a437" stroke-width="2" opacity="0.7"/>
    <path d="M 185 90 Q 230 130 185 170 Q 140 130 185 90" fill="none" stroke="#ecd28a" stroke-width="1.5" opacity="0.5"/>
    <path d="M 185 70 Q 255 130 185 190 Q 115 130 185 70" fill="none" stroke="#ecd28a" stroke-width="1.2" opacity="0.35"/>
    <path d="M 185 50 Q 280 130 185 210 Q 90 130 185 50" fill="none" stroke="#ecd28a" stroke-width="1" opacity="0.2"/>
    <circle cx="185" cy="60" r="8" fill="#d4a437" filter="url(#glow)"/>
    <circle cx="185" cy="60" r="4" fill="#ecd28a"/>
    <g transform="translate(80, 350)">
      <rect x="0" y="20" width="8" height="10" fill="#d4a437" opacity="0.7"/>
      <rect x="12" y="12" width="8" height="18" fill="#d4a437" opacity="0.8"/>
      <rect x="24" y="4" width="8" height="26" fill="#d4a437" opacity="0.9"/>
      <rect x="36" y="0" width="8" height="30" fill="#d4a437"/>
      <text x="0" y="45" font-family="JetBrains Mono, monospace" font-size="9" fill="#d4a437" opacity="0.7">MOBILIS</text>
    </g>
    <g transform="translate(175, 350)">
      <rect x="0" y="20" width="8" height="10" fill="#2d8a5f" opacity="0.7"/>
      <rect x="12" y="12" width="8" height="18" fill="#2d8a5f" opacity="0.8"/>
      <rect x="24" y="4" width="8" height="26" fill="#2d8a5f" opacity="0.9"/>
      <rect x="36" y="8" width="8" height="22" fill="#2d8a5f" opacity="0.7"/>
      <text x="0" y="45" font-family="JetBrains Mono, monospace" font-size="9" fill="#2d8a5f" opacity="0.7">DJEZZY</text>
    </g>
    <g transform="translate(270, 350)">
      <rect x="0" y="20" width="8" height="10" fill="#b85042" opacity="0.7"/>
      <rect x="12" y="12" width="8" height="18" fill="#b85042" opacity="0.8"/>
      <rect x="24" y="8" width="8" height="22" fill="#b85042" opacity="0.8"/>
      <rect x="36" y="12" width="8" height="18" fill="#b85042" opacity="0.6"/>
      <text x="0" y="45" font-family="JetBrains Mono, monospace" font-size="9" fill="#b85042" opacity="0.7">OOREDOO</text>
    </g>
    <line x1="0" y1="480" x2="370" y2="480" stroke="#1a2238" stroke-width="2"/>
  </g>
  <g transform="translate(60, 56)">
    <rect width="52" height="52" rx="11" fill="url(#markGrad)"/>
    <text x="26" y="35" text-anchor="middle" font-family="JetBrains Mono, monospace" font-size="18" font-weight="700" fill="#0a0e1a">📱</text>
    <text x="72" y="24" font-family="Fraunces, Georgia, serif" font-size="15" font-style="italic" fill="#f4ede0">Algeria Tech</text>
    <text x="72" y="44" font-family="JetBrains Mono, monospace" font-size="11" fill="#64748b" letter-spacing="0.15em">INFOGRAPHIE INTERACTIVE</text>
  </g>
  <g transform="translate(60, 190)">
    <line x1="0" y1="8" x2="32" y2="8" stroke="#d4a437" stroke-width="1.5"/>
    <text x="44" y="13" font-family="JetBrains Mono, monospace" font-size="13" font-weight="500" letter-spacing="0.2em" fill="#d4a437">ARPCE · T3 2025</text>
  </g>
  <text x="60" y="295" font-family="Fraunces, Georgia, serif" font-size="54" font-weight="500" fill="#f4ede0" letter-spacing="-0.02em">Observatoire du Marché</text>
  <text x="60" y="360" font-family="Fraunces, Georgia, serif" font-size="46" font-weight="400" font-style="italic" fill="url(#goldGrad)" letter-spacing="-0.01em">de la Téléphonie Mobile</text>
  <line x1="60" y1="390" x2="750" y2="390" stroke="rgba(255,255,255,0.08)" stroke-width="1"/>
  <g transform="translate(60, 420)">
    <g>
      <text x="0" y="0" font-family="JetBrains Mono, monospace" font-size="11" letter-spacing="0.15em" fill="#64748b">TOTAL ABONNÉS</text>
      <text x="0" y="48" font-family="Fraunces, Georgia, serif" font-size="52" font-weight="400" fill="#d4a437" letter-spacing="-0.02em">55,94 M</text>
    </g>
    <g transform="translate(290, 0)">
      <text x="0" y="0" font-family="JetBrains Mono, monospace" font-size="11" letter-spacing="0.15em" fill="#64748b">MOBILIS (ATM)</text>
      <text x="0" y="48" font-family="Fraunces, Georgia, serif" font-size="52" font-weight="400" fill="#2d8a5f" letter-spacing="-0.02em">41,97%</text>
    </g>
    <g transform="translate(545, 0)">
      <text x="0" y="0" font-family="JetBrains Mono, monospace" font-size="11" letter-spacing="0.15em" fill="#64748b">DJEZZY (OTA)</text>
      <text x="0" y="48" font-family="Fraunces, Georgia, serif" font-size="52" font-weight="400" fill="#ecd28a" letter-spacing="-0.02em">31,75%</text>
    </g>
  </g>
  <g transform="translate(60, 540)">
    <rect width="690" height="6" rx="3" fill="#1a2238"/>
    <rect width="290" height="6" rx="3" fill="#d4a437"/>
    <rect x="290" width="219" height="6" rx="3" fill="#2d8a5f"/>
    <rect x="509" width="181" height="6" rx="3" fill="#b85042"/>
    <text x="0" y="24" font-family="JetBrains Mono, monospace" font-size="11" fill="#64748b" letter-spacing="0.1em">MOBILIS 41,97 % · DJEZZY 31,75 % · OOREDOO 26,29 %</text>
  </g>
  <g transform="translate(60, 590)">
    <rect width="340" height="36" rx="8" fill="rgba(212,164,55,0.08)" stroke="rgba(212,164,55,0.25)" stroke-width="1"/>
    <text x="16" y="23" font-family="JetBrains Mono, monospace" font-size="11" letter-spacing="0.1em" fill="#d4a437">SOURCE : ARPCE — ALGÉRIE T3 2025</text>
  </g>
  <g transform="translate(60, 690)">
    <rect width="300" height="50" rx="12" fill="url(#goldGrad)"/>
    <text x="150" y="31" text-anchor="middle" font-family="JetBrains Mono, monospace" font-size="13" font-weight="700" letter-spacing="0.15em" fill="#0a0e1a">EXPLORER →</text>
  </g>
  <text x="380" y="718" font-family="JetBrains Mono, monospace" font-size="11" letter-spacing="0.1em" fill="#354265">GRAPHIQUES INTERACTIFS · 3D · EXPORTS CSV / PDF</text>
</svg>
